# Blender v2.93.5 OBJ File: 'rock.blend'
# www.blender.org
mtllib rock.mtl
o Cube
v 1.000000 1.000000 -1.000000
v 1.000000 -1.000000 -1.000000
v 1.000000 1.000000 1.000000
v 1.000000 -1.000000 1.000000
v -1.000000 1.000000 -1.000000
v -1.000000 -1.000000 -1.000000
v -1.000000 1.000000 1.000000
v -1.000000 -1.000000 1.000000
vt 0.666724 0.000058
vt 1.000019 0.000058
vt 1.000019 0.999942
vt 0.666724 0.999942
vt 0.333353 0.000058
vt 0.333353 0.999942
vt 0.000058 0.999942
vt 0.000058 0.000058
vt 0.666686 0.000058
vt 0.666686 0.999942
vt 0.333391 0.999942
vt 0.333391 0.000058
vt 0.666686 0.000058
vt 0.666686 0.999942
vt 0.000058 0.999942
vt 0.000058 0.000058
vn 0.0000 1.0000 0.0000
vn 0.0000 0.0000 1.0000
vn -1.0000 0.0000 0.0000
vn 1.0000 0.0000 0.0000
vn 0.0000 0.0000 -1.0000
usemtl Material
s off
f 1/1/1 5/2/1 7/3/1 3/4/1
f 4/5/2 3/6/2 7/7/2 8/8/2
f 8/9/3 7/10/3 5/11/3 6/12/3
f 2/13/4 1/14/4 3/6/4 4/5/4
f 6/12/5 5/11/5 1/15/5 2/16/5
