# Blender v2.93.5 OBJ File: 'pup_shield.blend'
# www.blender.org
mtllib pup_shield.mtl
o pup_shield_Scene
v -0.069755 0.828256 -0.272042
v -0.089057 0.863665 -0.207105
v -0.331859 0.865780 -0.280428
v -0.312558 0.830371 -0.345365
v -0.293256 0.794962 -0.410301
v -0.050454 0.792848 -0.336978
v 0.438211 0.859073 -0.047877
v 0.195408 0.861187 -0.121201
v 0.457512 0.823664 -0.112814
v 0.214710 0.825779 -0.186137
v 0.234011 0.790370 -0.251074
v 0.476814 0.788255 -0.177751
v 0.362095 0.380646 0.190375
v 0.381396 0.345238 0.125439
v 0.400698 0.309829 0.060502
v -0.407975 0.387353 -0.042176
v -0.388674 0.351945 -0.107112
v -0.369372 0.316536 -0.172048
v -0.072766 0.070817 0.230062
v -0.053465 0.035409 0.165126
v -0.034163 -0.000000 0.100189
v -0.056322 0.788066 -0.156153
v -0.037021 0.752658 -0.221089
v 0.041210 0.787217 -0.126699
v 0.060512 0.751809 -0.191636
v 0.138743 0.786367 -0.097246
v 0.158044 0.750959 -0.162182
v 0.177346 0.715550 -0.227119
v 0.079813 0.716400 -0.256572
v -0.017719 0.717249 -0.286026
v -0.237987 0.769027 -0.236004
v -0.156907 0.768321 -0.211520
v -0.294843 0.411657 -0.058037
v -0.122919 0.691483 -0.159519
v 0.035801 0.690101 -0.111588
v -0.045898 0.176580 0.144142
v 0.277054 0.406676 0.114668
v 0.187839 0.688777 -0.065675
v 0.246148 0.764810 -0.089802
v 0.333910 0.764046 -0.063300
v -0.153484 0.792101 -0.187232
v -0.120749 0.716502 -0.136280
v -0.253718 0.792974 -0.217502
v -0.312403 0.424110 -0.033811
v 0.029751 0.715191 -0.090831
v 0.180252 0.713881 -0.045382
v -0.055199 0.181234 0.175075
v 0.278467 0.418964 0.144624
v 0.337152 0.787828 -0.039067
v 0.236917 0.788701 -0.069337
v -0.214929 0.726728 -0.313576
v -0.271786 0.369359 -0.135609
v -0.133850 0.726022 -0.289091
v -0.099862 0.649185 -0.237091
v 0.058858 0.647803 -0.189160
v -0.022841 0.134282 0.066570
v 0.300111 0.364378 0.037096
v 0.210896 0.646478 -0.143246
v 0.269205 0.722512 -0.167374
v 0.356967 0.721747 -0.140871
v -0.016596 0.110417 0.045203
v 0.317070 0.348147 0.014751
v 0.375755 0.717010 -0.168940
v 0.275520 0.717883 -0.199210
v 0.218855 0.643063 -0.175255
v 0.068354 0.644374 -0.220704
v -0.273800 0.353293 -0.163684
v -0.215115 0.722156 -0.347375
v -0.114881 0.721283 -0.317105
v -0.082146 0.645685 -0.266153
v 0.113217 0.555260 0.109819
v -0.055037 0.324747 0.185502
v -0.035059 0.471707 0.111306
v -0.049220 0.583523 0.046126
v -0.175415 0.489039 0.060136
v -0.077367 0.692510 -0.021669
v -0.159622 0.431054 -0.032575
v -0.046469 0.664252 -0.126101
v -0.015072 0.413636 0.019889
v -0.035683 0.253186 0.101302
v 0.152359 0.508788 0.017771
v -0.014434 0.538479 -0.047997
vt 0.119146 0.527216
vt 0.161256 0.387490
vt 0.161255 0.527216
vt 0.119146 0.387490
vt 0.077037 0.387490
vt 0.077036 0.527216
vt 0.161255 0.885919
vt 0.119145 0.885919
vt 0.161255 0.746193
vt 0.119145 0.746193
vt 0.077036 0.746193
vt 0.077036 0.885919
vt 0.470696 0.826553
vt 0.470695 0.784444
vt 0.768095 0.826549
vt 0.768095 0.784440
vt 0.768095 0.742330
vt 0.470695 0.742334
vt 0.085330 0.944122
vt 0.382727 0.986245
vt 0.085328 0.986231
vt 0.382729 0.944135
vt 0.382730 0.902026
vt 0.085332 0.902012
vt 0.677680 0.986246
vt 0.677680 0.944136
vt 0.677680 0.902027
vt 0.175743 0.826553
vt 0.175743 0.784444
vt 0.175743 0.742334
vt 0.161255 0.580577
vt 0.161255 0.636704
vt 0.119146 0.580577
vt 0.119145 0.636704
vt 0.161255 0.692831
vt 0.119145 0.692831
vt 0.077036 0.692831
vt 0.077036 0.636704
vt 0.077036 0.580577
vt 0.016814 0.012718
vt 0.238962 0.012737
vt 0.016810 0.059377
vt 0.064321 0.085938
vt 0.064314 0.177277
vt 0.383528 0.177304
vt 0.238934 0.341847
vt 0.064306 0.264771
vt 0.016790 0.291324
vt 0.016786 0.341829
vt 0.313311 0.868916
vt 0.315018 0.887025
vt 0.263020 0.868916
vt 0.264632 0.887025
vt 0.362659 0.887025
vt 0.358892 0.868916
vt 0.584137 0.868916
vt 0.585272 0.887025
vt 0.808576 0.839065
vt 0.808609 0.857114
vt 0.722104 0.839065
vt 0.723633 0.857114
vt 0.173334 0.839065
vt 0.401849 0.839065
vt 0.177321 0.857114
vt 0.400720 0.857114
vt 0.625590 0.839065
vt 0.670989 0.839065
vt 0.621833 0.857114
vt 0.672227 0.857114
vt 0.813883 0.868916
vt 0.809856 0.887025
vt 0.177386 0.868916
vt 0.177401 0.887025
vt 0.727173 0.012923
vt 0.727177 0.055340
vt 0.525220 0.012940
vt 0.683985 0.079487
vt 0.683992 0.162522
vt 0.393796 0.162546
vt 0.525245 0.312131
vt 0.683998 0.242062
vt 0.727194 0.266201
vt 0.727198 0.312114
vt 0.725298 0.502660
vt 0.725298 0.440262
vt 0.926732 0.325677
vt 0.879857 0.304465
vt 0.879857 0.096017
vt 0.926732 0.055315
vt 0.799708 0.055315
vt 0.827419 0.096017
vt 0.776323 0.097816
vt 0.804033 0.138518
vt 0.725298 0.138518
vt 0.725298 0.097816
vt 0.983856 0.713558
vt 0.782423 0.598974
vt 0.782423 0.536576
vt 0.936981 0.734771
vt 0.936981 0.943219
vt 0.983856 0.983921
vt 0.856833 0.983921
vt 0.884543 0.943219
vt 0.833448 0.941420
vt 0.861158 0.900718
vt 0.782423 0.900718
vt 0.782423 0.941420
vt 0.966708 0.513408
vt 0.966707 0.467603
vt 0.983170 0.514874
vt 0.983170 0.469155
vt 0.983170 0.427718
vt 0.966707 0.424293
vt 0.983170 0.222949
vt 0.966708 0.221918
vt 0.942209 0.092163
vt 0.942209 0.014912
vt 0.958617 0.093553
vt 0.958617 0.014941
vt 0.958617 0.592437
vt 0.942209 0.588812
vt 0.958618 0.384695
vt 0.942209 0.385721
vt 0.942209 0.138895
vt 0.958618 0.140021
vt 0.942209 0.184709
vt 0.958617 0.181293
vt 0.966707 0.017751
vt 0.983170 0.014089
vt 0.983170 0.592723
vt 0.966707 0.592710
vt 0.477947 0.498527
vt 0.400228 0.462646
vt 0.389447 0.381233
vt 0.393078 0.526821
vt 0.326880 0.483094
vt 0.378609 0.590464
vt 0.066987 0.538287
vt 0.066987 0.663322
vt 0.011650 0.536410
vt 0.011650 0.666541
vt 0.066987 0.460843
vt 0.011650 0.459547
vt 0.066987 0.377798
vt 0.011650 0.366149
vt 0.066987 0.824170
vt 0.066987 0.971832
vt 0.011650 0.823154
vt 0.011650 0.983431
vt 0.066987 0.733957
vt 0.011650 0.735254
vt 0.398759 0.303643
vt 0.620336 0.429686
vt 0.568774 0.453020
vt 0.568774 0.682312
vt 0.398759 0.235005
vt 0.620336 0.727085
vt 0.480610 0.727085
vt 0.511092 0.682312
vt 0.177182 0.429686
vt 0.228745 0.453019
vt 0.454886 0.680333
vt 0.485368 0.635561
vt 0.228745 0.682312
vt 0.177182 0.727085
vt 0.316908 0.727085
vt 0.286427 0.682312
vt 0.398759 0.635561
vt 0.398759 0.680333
vt 0.342632 0.680333
vt 0.312150 0.635561
vn 0.6085 0.7586 -0.2328
vn -0.6171 0.7839 0.0688
vn 0.3292 0.8839 0.3322
vn -0.5772 0.6325 -0.5165
vn -0.3255 0.2490 -0.9121
vn 0.6365 0.3201 -0.7017
vn 0.4883 0.7743 0.4025
vn 0.7766 0.6207 -0.1076
vn -0.4439 0.8906 0.0987
vn -0.3658 0.7671 -0.5270
vn -0.1366 0.3269 -0.9351
vn 0.7798 0.2394 -0.5784
vn 0.4776 -0.0016 0.8786
vn 0.8140 -0.3729 0.4453
vn 0.7932 -0.5806 -0.1833
vn -0.8840 0.0102 0.4674
vn -0.9302 -0.3578 -0.0814
vn -0.5683 -0.5688 -0.5945
vn -0.2620 -0.4483 0.8546
vn -0.1410 -0.8862 0.4413
vn 0.0331 -0.9898 -0.1384
vn 0.1165 0.7998 0.5889
vn -0.0788 0.9542 0.2886
vn 0.1410 0.8862 -0.4413
vn -0.4101 0.8043 0.4298
vn 0.0147 0.0249 -0.9996
vn 0.2782 0.2991 -0.9127
vn 0.5413 0.0203 -0.8405
vn 0.2078 -0.0777 0.9751
vn 0.4382 0.5940 0.6746
vn -0.5657 -0.1440 0.8119
vn -0.4660 0.1422 0.8732
vn -0.2881 -0.1145 0.9507
vn -0.0796 0.9534 0.2910
vn -0.7288 0.6041 0.3222
vn -0.0957 0.0986 0.9905
vn 0.0842 -0.1736 0.9812
vn -0.7140 -0.0696 0.6967
vn -0.4725 0.1435 0.8695
vn -0.5737 -0.1304 0.8086
vn -0.0739 0.2564 0.9637
vn 0.2108 0.5705 0.7937
vn 0.0944 -0.1630 0.9821
vn -0.1875 0.7430 0.6424
vn -0.6057 0.5777 0.5471
vn -0.4678 0.2598 0.8448
vn -0.0864 0.0976 0.9915
vn 0.5814 -0.7631 -0.2820
vn -0.1789 -0.8535 -0.4893
vn 0.8107 -0.0894 -0.5786
vn 0.0013 -0.7151 -0.6990
vn 0.1297 -0.8810 -0.4549
vn 0.2784 0.2966 -0.9135
vn -0.3563 -0.0792 -0.9310
vn 0.3645 -0.7456 -0.5578
vn 0.4538 -0.8516 -0.2622
vn -0.3403 -0.7551 -0.5603
vn 0.2858 -0.1254 -0.9500
vn -0.1586 -0.2425 -0.9571
vn 0.0151 -0.6260 -0.7797
vn 0.3728 -0.7448 -0.5534
vn 0.4656 -0.8439 -0.2665
vn 0.6579 -0.2496 -0.7105
vn 0.4089 -0.6294 -0.6607
vn -0.0056 -0.7129 -0.7012
vn -0.1842 -0.8450 -0.5019
vn 0.5812 0.5867 0.5639
vn -0.5715 0.1647 0.8039
vn -0.4371 -0.3866 0.8120
vn 0.1552 0.7476 0.6457
vn -0.8483 -0.0910 0.5216
vn -0.0796 0.9807 0.1787
vn -0.9008 -0.4206 0.1080
vn 0.0479 0.9677 -0.2477
vn -0.8270 -0.5390 0.1598
vn -0.4001 -0.7417 0.5383
vn 0.8893 0.4288 0.1591
vn 0.6918 0.7167 -0.0878
usemtl pup_Shield_alb
s 1
f 1/1/1 3/2/2 2/3/3
f 4/4/4 3/2/2 1/1/1
f 4/4/4 1/1/1 5/5/5
f 5/5/5 1/1/1 6/6/6
f 7/7/7 9/8/8 8/9/9
f 8/9/9 9/8/8 10/10/10
f 9/8/8 11/11/11 10/10/10
f 12/12/12 11/11/11 9/8/8
f 13/13/13 14/14/14 7/15/7
f 7/15/7 14/14/14 9/16/8
f 14/14/14 12/17/12 9/16/8
f 15/18/15 12/17/12 14/14/14
f 4/19/4 16/20/16 3/21/2
f 17/22/17 16/20/16 4/19/4
f 17/22/17 4/19/4 18/23/18
f 18/23/18 4/19/4 5/24/5
f 19/25/19 16/20/16 20/26/20
f 20/26/20 16/20/16 17/22/17
f 18/23/18 20/26/20 17/22/17
f 21/27/21 20/26/20 18/23/18
f 13/13/13 19/28/19 14/14/14
f 14/14/14 19/28/19 20/29/20
f 21/30/21 14/14/14 20/29/20
f 15/18/15 14/14/14 21/30/21
f 22/31/22 24/32/23 23/33/1
f 23/33/1 24/32/23 25/34/24
f 24/32/23 26/35/25 25/34/24
f 25/34/24 26/35/25 27/36/10
f 28/37/26 25/34/24 27/36/10
f 29/38/27 25/34/24 28/37/26
f 29/38/27 23/33/1 25/34/24
f 30/39/28 23/33/1 29/38/27
f 31/40/29 33/41/30 32/42/31
f 33/41/30 34/43/32 32/42/31
f 33/41/30 35/44/33 34/43/32
f 36/45/34 35/44/33 33/41/30
f 36/45/34 37/46/35 35/44/33
f 35/44/33 37/46/35 38/47/36
f 37/46/35 39/48/37 38/47/36
f 40/49/38 39/48/37 37/46/35
f 22/31/22 23/33/1 2/3/3
f 2/3/3 23/33/1 1/1/1
f 23/33/1 6/6/6 1/1/1
f 30/39/28 6/6/6 23/33/1
f 10/10/10 26/35/25 8/9/9
f 27/36/10 26/35/25 10/10/10
f 27/36/10 10/10/10 28/37/26
f 28/37/26 10/10/10 11/11/11
f 41/50/39 32/51/31 42/52/40
f 42/52/40 32/51/31 34/53/32
f 31/54/29 32/51/31 43/55/41
f 43/55/41 32/51/31 41/50/39
f 43/55/41 44/56/42 31/54/29
f 31/54/29 44/56/42 33/57/30
f 45/58/33 35/59/33 46/60/43
f 46/60/43 35/59/33 38/61/36
f 47/62/44 48/63/45 36/64/34
f 36/64/34 48/63/45 37/65/35
f 49/66/46 50/67/47 40/68/38
f 40/68/38 50/67/47 39/69/37
f 50/67/47 46/60/43 39/69/37
f 39/69/37 46/60/43 38/61/36
f 49/66/46 40/68/38 48/63/45
f 48/63/45 40/68/38 37/65/35
f 47/70/44 36/71/34 44/56/42
f 44/56/42 36/71/34 33/57/30
f 45/72/33 42/52/40 35/73/33
f 35/73/33 42/52/40 34/53/32
f 51/74/48 53/75/49 52/76/50
f 53/75/49 54/77/51 52/76/50
f 54/77/51 55/78/52 52/76/50
f 52/76/50 55/78/52 56/79/53
f 55/78/52 57/80/54 56/79/53
f 58/81/55 57/80/54 55/78/52
f 57/80/54 58/81/55 59/82/56
f 60/83/57 57/80/54 59/82/56
f 21/84/21 61/85/58 15/86/15
f 15/86/15 61/85/58 62/87/59
f 62/87/59 63/88/60 15/86/15
f 15/86/15 63/88/60 12/89/12
f 63/88/60 11/90/11 12/89/12
f 64/91/61 11/90/11 63/88/60
f 11/90/11 64/91/61 28/92/26
f 28/92/26 64/91/61 65/93/62
f 65/93/62 66/94/52 28/92/26
f 28/92/26 66/94/52 29/95/27
f 18/96/18 61/97/58 21/98/21
f 67/99/63 61/97/58 18/96/18
f 18/96/18 68/100/64 67/99/63
f 5/101/5 68/100/64 18/96/18
f 5/101/5 6/102/6 68/100/64
f 68/100/64 6/102/6 69/103/65
f 30/104/28 69/103/65 6/102/6
f 70/105/66 69/103/65 30/104/28
f 30/104/28 66/106/52 70/105/66
f 29/107/27 66/106/52 30/104/28
f 54/108/51 53/109/49 70/110/66
f 70/110/66 53/109/49 69/111/65
f 69/111/65 53/109/49 68/112/64
f 68/112/64 53/109/49 51/113/48
f 68/112/64 51/113/48 67/114/63
f 67/114/63 51/113/48 52/115/50
f 58/116/55 55/117/52 65/118/62
f 65/118/62 55/117/52 66/119/52
f 61/120/58 56/121/53 62/122/59
f 62/122/59 56/121/53 57/123/54
f 59/124/56 64/125/61 60/126/57
f 60/126/57 64/125/61 63/127/60
f 64/125/61 59/124/56 65/118/62
f 65/118/62 59/124/56 58/116/55
f 57/123/54 60/126/57 62/122/59
f 62/122/59 60/126/57 63/127/60
f 52/115/50 56/128/53 67/114/63
f 67/114/63 56/128/53 61/129/58
f 66/130/52 55/131/52 70/110/66
f 70/110/66 55/131/52 54/108/51
f 71/132/67 73/133/68 72/134/69
f 74/135/70 73/133/68 71/132/67
f 75/136/71 73/133/68 74/135/70
f 76/137/72 75/136/71 74/135/70
f 75/138/71 76/139/72 77/140/73
f 77/140/73 76/139/72 78/141/74
f 73/142/68 75/138/71 79/143/75
f 79/143/75 75/138/71 77/140/73
f 73/142/68 79/143/75 72/144/69
f 72/144/69 79/143/75 80/145/76
f 71/146/67 72/147/69 81/148/77
f 81/148/77 72/147/69 80/149/76
f 74/150/70 71/146/67 82/151/78
f 82/151/78 71/146/67 81/148/77
f 74/150/70 82/151/78 76/139/72
f 76/139/72 82/151/78 78/141/74
f 47/152/44 13/153/13 48/154/45
f 13/153/13 49/155/46 48/154/45
f 19/156/19 13/153/13 47/152/44
f 7/157/7 49/155/46 13/153/13
f 7/157/7 8/158/9 49/155/46
f 49/155/46 8/158/9 50/159/47
f 19/156/19 47/152/44 16/160/16
f 16/160/16 47/152/44 44/161/42
f 8/158/9 26/162/25 50/159/47
f 50/159/47 26/162/25 46/163/43
f 43/164/41 16/160/16 44/161/42
f 3/165/2 16/160/16 43/164/41
f 3/165/2 43/164/41 2/166/3
f 2/166/3 43/164/41 41/167/39
f 26/162/25 45/168/33 46/163/43
f 24/169/23 45/168/33 26/162/25
f 2/166/3 41/167/39 22/170/22
f 24/169/23 22/170/22 45/168/33
f 22/170/22 41/167/39 42/171/40
f 45/168/33 22/170/22 42/171/40
